<?xml version="1.0" encoding="UTF-8" standalone="no"?><!DOCTYPE svg PUBLIC "-//W3C//DTD SVG 1.1//EN" "http://www.w3.org/Graphics/SVG/1.1/DTD/svg11.dtd"><svg width="100%" height="100%" viewBox="0 0 322 342" version="1.1" xmlns="http://www.w3.org/2000/svg" xmlns:xlink="http://www.w3.org/1999/xlink" xml:space="preserve" style="fill-rule:evenodd;clip-rule:evenodd;stroke-linejoin:round;stroke-miterlimit:1.41421;"><g><path d="M161.625,0.003c48.297,0.427 87.094,47.471 86.586,104.988c-0.252,28.386 -2.197,103.441 -2.197,103.441c0,0 -61.772,0.215 -86.233,-0.001c-24.596,-0.218 -84.386,0.001 -84.386,0.001c0,0 -2.448,-76.765 -2.199,-104.989c0.509,-57.518 40.133,-103.867 88.429,-103.44Z" style="fill:#f97572;"/><path d="M16.748,279.862c-2.678,3.851 -9.359,36.6 -16.748,61.429c86.67,-0.528 105.837,0.031 166.766,0.031c60.932,0 79.054,-0.836 154.908,-0.031c-7.392,-24.826 -14.072,-57.581 -16.75,-61.429c-41.126,-59.156 -104.518,-33.332 -108.84,-101.026c0,0 -20.394,13.558 -35.966,13.681c-15.573,0.124 -34.55,-12.826 -34.55,-12.826c-4.312,67.635 -67.723,41.059 -108.82,100.171Z" style="fill:#faa2a0;fill-rule:nonzero;"/><path d="M197.045,189.569c-0.511,-3.331 -0.887,-6.893 -1.104,-10.731c0,0 -20.394,15.219 -35.966,15.358c-15.573,0.139 -34.55,-14.398 -34.55,-14.398c-0.22,3.908 -0.606,7.523 -1.133,10.898c0.399,0.315 0.795,0.635 1.201,0.947l-0.005,0.055c1.199,1.044 19.428,16.719 34.484,16.561c15.056,0.157 33.283,-15.52 34.484,-16.561l-0.003,-0.055c0.884,-0.677 1.742,-1.374 2.589,-2.072l0.003,-0.002Z" style="fill:#e89290;fill-rule:nonzero;"/><path d="M194.368,179.846c-1.199,0.905 -19.428,14.484 -34.484,14.348c-15.056,0.136 -33.283,-13.445 -34.484,-14.348c-22.757,-13.267 -41.32,-52.372 -37.215,-94.776c3.369,-34.809 22.579,-56.158 66.997,-62.039c15.074,-1.996 36.003,2.295 44.652,9.336c25.57,20.818 28.749,36.362 31.746,58.329c4.42,32.391 -13.765,73.147 -37.212,89.152l0,-0.002l0,0Z" style="fill:#faa2a0;fill-rule:nonzero;"/><path d="M96.683,227.61c0,0 -16.204,5.004 -16.301,7.827c-0.73,21.397 -31.306,54.355 -65.229,49.29c-4.543,-0.678 -15.153,56.595 -15.153,56.595l83.822,-0.437l237.852,0.437c0,0 -11.941,-64.2 -16.352,-63.434c-23.493,4.078 -64.025,-29.032 -66.235,-45.629c-0.621,-4.664 -10.25,-4.594 -14.314,-6.445c-9.85,28.293 -39.362,77.96 -60.71,78.259c-21.349,0.3 -59.313,-54.705 -67.38,-76.463Z" style="fill:#c66d6b;fill-rule:nonzero;"/><path d="M182.117,141.345c2.164,1.961 -8.214,24.873 -21.825,24.873c-13.611,0 -21.358,-19.356 -21.358,-19.356c0,0 15.958,2.427 23.172,1.973c6.622,-0.416 20.011,-7.49 20.011,-7.49Z" style="fill:#fff;"/><path d="M158.495,17.943c35.967,0.091 53.435,10.42 61.089,30.076c3.063,7.868 4.767,30.965 4.767,30.965c0,0 -48.36,-0.12 -66.01,-0.165c-19.046,-0.048 -64.718,0.111 -64.718,0.111c0,0 2.148,-23.316 6.231,-29.832c10.049,-16.035 22.674,-31.245 58.641,-31.155Z" style="fill:#f97572;"/></g></svg>