<?xml version="1.0" encoding="UTF-8" standalone="no"?><!DOCTYPE svg PUBLIC "-//W3C//DTD SVG 1.1//EN" "http://www.w3.org/Graphics/SVG/1.1/DTD/svg11.dtd"><svg width="100%" height="100%" viewBox="0 0 322 404" version="1.1" xmlns="http://www.w3.org/2000/svg" xmlns:xlink="http://www.w3.org/1999/xlink" xml:space="preserve" style="fill-rule:evenodd;clip-rule:evenodd;stroke-linejoin:round;stroke-miterlimit:1.41421;"><g><path d="M161.625,62.353c48.297,0.428 87.152,41.014 86.713,90.578c-0.438,49.564 -40.005,89.457 -88.302,89.03c-48.296,-0.428 -87.151,-41.014 -86.712,-90.578c0.438,-49.564 40.005,-89.457 88.301,-89.03Z" style="fill:#5aad5c;"/><path d="M16.748,342.212c-2.678,3.851 -9.359,36.6 -16.748,61.429c86.67,-0.527 105.837,0.032 166.766,0.032c60.932,0 79.054,-0.837 154.908,-0.032c-7.392,-24.826 -14.072,-57.581 -16.75,-61.429c-41.126,-59.156 -104.518,-33.332 -108.84,-101.026c0,0 -20.394,13.558 -35.966,13.682c-15.573,0.124 -34.55,-12.826 -34.55,-12.826c-4.312,67.634 -67.723,41.058 -108.82,100.17Z" style="fill:#85c486;fill-rule:nonzero;"/><path d="M197.045,251.919c-0.511,-3.331 -0.887,-6.893 -1.104,-10.731c0,0 -20.394,15.219 -35.966,15.358c-15.573,0.139 -34.55,-14.398 -34.55,-14.398c-0.22,3.908 -0.606,7.523 -1.133,10.898c0.399,0.315 0.795,0.635 1.201,0.947l-0.005,0.055c1.199,1.044 19.428,16.719 34.484,16.561c15.056,0.157 33.283,-15.52 34.484,-16.561l-0.003,-0.055c0.884,-0.677 1.742,-1.374 2.589,-2.072l0.003,-0.002Z" style="fill:#78b079;fill-rule:nonzero;"/><path d="M194.368,242.196c-1.199,0.905 -19.428,14.484 -34.484,14.348c-15.056,0.136 -33.283,-13.445 -34.484,-14.348c-22.757,-13.267 -41.32,-52.372 -37.215,-94.776c3.369,-34.809 22.579,-56.158 66.997,-62.039c15.074,-1.995 36.003,2.295 44.652,9.337c25.57,20.818 28.749,36.361 31.746,58.328c4.42,32.391 -13.765,73.147 -37.212,89.152l0,-0.002l0,0Z" style="fill:#85c486;fill-rule:nonzero;"/><path d="M96.563,290.388c0,0 -4.669,-2.046 -23.243,8.975c-3.95,2.343 -6.396,104.31 -6.396,104.31l16.898,-0.438l176.653,-0.442c0,0 -4.947,-89.55 -6.844,-93.605c-10.358,-22.153 -6.424,-10.808 -28.858,-21.024c-34.646,99.514 -97.853,73.965 -128.21,2.224Z" style="fill:#4a8c4b;fill-rule:nonzero;"/><path d="M182.117,203.695c2.164,1.962 -8.214,24.873 -21.825,24.873c-13.611,0 -21.358,-19.356 -21.358,-19.356c0,0 15.958,2.427 23.172,1.974c6.622,-0.416 20.011,-7.491 20.011,-7.491Z" style="fill:#fff;"/><path d="M165.081,78.466c31.005,0.536 55.984,12.169 55.745,25.96c-0.239,13.791 -25.605,24.552 -56.61,24.015c-31.005,-0.537 -55.984,-12.169 -55.745,-25.96c0.239,-13.791 25.605,-24.552 56.61,-24.015Z" style="fill:#5aad5c;"/><path d="M165.327,0.008c24.324,0.421 43.767,18.334 43.392,39.978c-0.374,21.644 -20.426,38.874 -44.749,38.453c-24.324,-0.421 -43.767,-18.335 -43.392,-39.979c0.375,-21.643 20.426,-38.874 44.749,-38.452Z" style="fill:#5aad5c;"/><path d="M124.712,131.749c-15.901,29.732 -36.088,49.978 -45.053,45.184c-8.965,-4.795 -3.333,-32.826 12.567,-62.557c15.901,-29.732 36.089,-49.978 45.053,-45.183c8.965,4.794 3.334,32.825 -12.567,62.556Z" style="fill:#5aad5c;"/></g></svg>