<?xml version="1.0" encoding="UTF-8" standalone="no"?><!DOCTYPE svg PUBLIC "-//W3C//DTD SVG 1.1//EN" "http://www.w3.org/Graphics/SVG/1.1/DTD/svg11.dtd"><svg width="100%" height="100%" viewBox="0 0 322 361" version="1.1" xmlns="http://www.w3.org/2000/svg" xmlns:xlink="http://www.w3.org/1999/xlink" xml:space="preserve" style="fill-rule:evenodd;clip-rule:evenodd;stroke-linejoin:round;stroke-miterlimit:1.41421;"><path d="M161.768,18.834c48.297,0.427 87.091,47.844 86.578,105.822c-0.513,57.977 -40.14,104.7 -88.436,104.273c-48.297,-0.428 -87.091,-47.845 -86.578,-105.822c0.513,-57.977 40.14,-104.7 88.436,-104.273l0,0Z" style="fill:#46598f;"/><path d="M95.95,63.987c14.876,8.4 21.166,25.47 14.037,38.096c-7.129,12.626 -24.995,16.057 -39.872,7.658c-14.876,-8.4 -21.166,-25.471 -14.037,-38.097c7.13,-12.626 24.995,-16.057 39.872,-7.657l0,0Z" style="fill:#46598f;"/><path d="M140.868,184.585c14.877,8.4 21.166,25.47 14.037,38.097c-7.129,12.626 -24.995,16.057 -39.871,7.657c-14.876,-8.4 -21.166,-25.47 -14.037,-38.096c7.129,-12.626 24.995,-16.057 39.871,-7.658l0,0Z" style="fill:#46598f;"/><path d="M120.369,23.814c14.876,8.4 21.166,25.47 14.037,38.096c-7.129,12.626 -24.995,16.058 -39.871,7.658c-14.877,-8.4 -21.166,-25.47 -14.037,-38.096c7.129,-12.626 24.995,-16.058 39.871,-7.658Z" style="fill:#46598f;"/><path d="M167.077,4.598c14.876,8.4 21.166,25.471 14.037,38.097c-7.129,12.626 -24.995,16.057 -39.872,7.657c-14.876,-8.4 -21.166,-25.47 -14.037,-38.096c7.13,-12.626 24.995,-16.057 39.872,-7.658l0,0Z" style="fill:#46598f;"/><path d="M221.041,8.061c14.876,8.4 21.166,25.47 14.037,38.096c-7.129,12.626 -24.995,16.057 -39.872,7.658c-14.876,-8.4 -21.166,-25.471 -14.037,-38.097c7.13,-12.626 24.995,-16.057 39.872,-7.657l0,0Z" style="fill:#46598f;"/><path d="M250.933,43.354c14.877,8.4 21.167,25.47 14.037,38.096c-7.129,12.626 -24.994,16.057 -39.871,7.658c-14.876,-8.4 -21.166,-25.471 -14.037,-38.097c7.129,-12.626 24.995,-16.057 39.871,-7.657l0,0Z" style="fill:#46598f;"/><path d="M250.933,137.592c14.877,8.4 21.167,25.47 14.037,38.096c-7.129,12.626 -24.994,16.057 -39.871,7.658c-14.876,-8.4 -21.166,-25.471 -14.037,-38.097c7.129,-12.626 24.995,-16.057 39.871,-7.657l0,0Z" style="fill:#46598f;"/><path d="M220.514,169.757c14.877,8.399 21.167,25.47 14.037,38.096c-7.129,12.626 -24.995,16.057 -39.871,7.657c-14.876,-8.4 -21.166,-25.47 -14.037,-38.096c7.129,-12.626 24.995,-16.057 39.871,-7.657Z" style="fill:#46598f;"/><path d="M193.869,189.6c14.877,8.4 21.167,25.47 14.037,38.096c-7.129,12.626 -24.995,16.057 -39.871,7.657c-14.876,-8.399 -21.166,-25.47 -14.037,-38.096c7.129,-12.626 24.995,-16.057 39.871,-7.657Z" style="fill:#46598f;"/><path d="M261.357,91.462c14.876,8.4 21.166,25.47 14.037,38.096c-7.129,12.626 -24.995,16.058 -39.871,7.658c-14.877,-8.4 -21.167,-25.47 -14.037,-38.096c7.129,-12.626 24.994,-16.058 39.871,-7.658l0,0Z" style="fill:#46598f;"/><path d="M86.155,110.15c14.877,8.4 21.167,25.471 14.037,38.097c-7.129,12.626 -24.994,16.057 -39.871,7.657c-14.876,-8.4 -21.166,-25.47 -14.037,-38.096c7.129,-12.626 24.995,-16.057 39.871,-7.658l0,0Z" style="fill:#46598f;"/><path d="M103.031,157.11c14.876,8.4 21.166,25.47 14.037,38.096c-7.129,12.626 -24.995,16.058 -39.871,7.658c-14.877,-8.4 -21.166,-25.47 -14.037,-38.096c7.129,-12.626 24.995,-16.058 39.871,-7.658Z" style="fill:#46598f;"/><path d="M16.891,298.693c-2.678,3.851 -9.359,36.6 -16.748,61.429c86.67,-0.527 105.837,0.031 166.766,0.031c60.932,0 79.054,-0.836 154.908,-0.031c-7.392,-24.826 -14.072,-57.581 -16.75,-61.429c-41.126,-59.156 -104.518,-33.332 -108.84,-101.026c0,0 -20.394,13.558 -35.966,13.682c-15.573,0.123 -34.55,-12.826 -34.55,-12.826c-4.312,67.634 -67.723,41.058 -108.82,100.17l0,0Z" style="fill:#8394c4;fill-rule:nonzero;"/><path d="M197.188,208.4c-0.511,-3.331 -0.887,-6.893 -1.104,-10.731c0,0 -20.394,15.219 -35.966,15.358c-15.573,0.139 -34.55,-14.398 -34.55,-14.398c-0.22,3.908 -0.606,7.523 -1.133,10.898c0.399,0.315 0.795,0.635 1.201,0.947l-0.005,0.055c1.199,1.044 19.428,16.719 34.484,16.561c15.056,0.157 33.283,-15.52 34.484,-16.561l-0.003,-0.055c0.884,-0.677 1.742,-1.374 2.589,-2.072l0.003,-0.002Z" style="fill:#7484b3;fill-rule:nonzero;"/><path d="M194.511,198.677c-1.199,0.905 -19.428,14.484 -34.484,14.348c-15.056,0.136 -33.283,-13.445 -34.484,-14.348c-22.757,-13.267 -41.32,-52.372 -37.215,-94.776c3.369,-34.809 22.579,-56.158 66.997,-62.039c15.074,-1.996 36.003,2.295 44.652,9.337c25.57,20.817 28.749,36.361 31.746,58.328c4.42,32.391 -13.765,73.147 -37.212,89.152l0,-0.002l0,0Z" style="fill:#8394c4;fill-rule:nonzero;"/><path d="M97.943,245.962c0,0 -65.596,17.12 -81.195,38.387c-2.717,3.703 -16.748,75.212 -16.748,75.212l321.96,0.592c0,0 -15.142,-71.749 -17.039,-75.804c-10.358,-22.154 -57.571,-29.488 -80.005,-39.704c-16.037,46.064 -108.511,43.292 -126.973,1.317Z" style="fill:#404f7b;fill-rule:nonzero;"/><path d="M182.26,160.176c2.164,1.961 -8.214,24.873 -21.825,24.873c-13.611,0 -21.358,-19.356 -21.358,-19.356c0,0 15.958,2.427 23.172,1.974c6.622,-0.416 20.011,-7.491 20.011,-7.491Z" style="fill:#fff;"/><path d="M200.931,41.667c32.934,14.953 55.042,37.289 49.339,49.849c-5.702,12.559 -37.069,10.615 -70.003,-4.338c-32.933,-14.953 -55.041,-37.289 -49.339,-49.848c5.703,-12.56 37.07,-10.616 70.003,4.337l0,0Z" style="fill:#46598f;"/><path d="M124.855,88.23c-15.901,29.732 -36.088,49.978 -45.053,45.183c-8.965,-4.794 -3.333,-32.825 12.567,-62.556c15.901,-29.732 36.089,-49.978 45.053,-45.183c8.965,4.794 3.334,32.825 -12.567,62.556l0,0Z" style="fill:#46598f;"/><path d="M225.13,244.884c9.749,17.931 3.739,40.06 -13.414,49.387c-17.153,9.326 -40.967,1.055 -50.716,-16.875c15.369,-1.885 26.823,-1.483 38.35,-7.603c12.465,-6.616 18.37,-13.067 25.78,-24.909Z" style="fill:#fff;"/><path d="M97.914,244.884c-9.749,17.931 -3.738,40.06 13.415,49.387c11.448,6.225 24.986,5.183 35.622,-1.53c5.3,-3.345 10.807,-9.043 14.049,-15.005c-23.624,-3.643 -29.272,-3.447 -36.246,-7.338c-12.323,-6.877 -22.513,-16.192 -26.84,-25.514Z" style="fill:#fff;"/></svg>