<?xml version="1.0" encoding="UTF-8" standalone="no"?><!DOCTYPE svg PUBLIC "-//W3C//DTD SVG 1.1//EN" "http://www.w3.org/Graphics/SVG/1.1/DTD/svg11.dtd"><svg width="100%" height="100%" viewBox="0 0 322 369" version="1.1" xmlns="http://www.w3.org/2000/svg" xmlns:xlink="http://www.w3.org/1999/xlink" xml:space="preserve" style="fill-rule:evenodd;clip-rule:evenodd;stroke-linejoin:round;stroke-miterlimit:1.41421;"><path d="M160.98,0.004c56.178,0.607 108.525,64.069 107.907,121.161c-0.318,29.438 -11.746,103.773 -14.845,130.677c-8.543,74.17 -66.746,56.561 -93.957,56.267c-27.098,-0.293 -79.696,11.7 -87.156,-55.611c-2.995,-27.022 -14.099,-98.669 -13.78,-128.222c0.618,-57.092 45.653,-124.879 101.831,-124.272Z" style="fill:#5c4e65;"/><path d="M16.891,306.805c-2.678,3.851 -9.359,36.6 -16.748,61.429c86.67,-0.527 105.837,0.032 166.766,0.032c60.932,0 79.054,-0.837 154.908,-0.032c-7.392,-24.826 -14.072,-57.581 -16.75,-61.429c-41.126,-59.156 -104.518,-33.332 -108.84,-101.025c0,0 -20.394,13.557 -35.966,13.681c-15.573,0.124 -34.55,-12.826 -34.55,-12.826c-4.312,67.635 -67.723,41.059 -108.82,100.17Z" style="fill:#cfbdd9;fill-rule:nonzero;"/><path d="M197.188,216.513c-0.511,-3.331 -0.887,-6.893 -1.104,-10.731c0,0 -20.394,15.219 -35.966,15.358c-15.573,0.139 -34.55,-14.398 -34.55,-14.398c-0.22,3.908 -0.606,7.523 -1.133,10.898c0.399,0.315 0.795,0.635 1.201,0.947l-0.005,0.055c1.199,1.044 19.428,16.719 34.484,16.561c15.056,0.157 33.283,-15.52 34.484,-16.561l-0.003,-0.055c0.884,-0.677 1.742,-1.374 2.589,-2.072l0.003,-0.002Z" style="fill:#baa1c9;fill-rule:nonzero;"/><path d="M194.511,206.79c-1.199,0.905 -19.428,14.484 -34.484,14.348c-15.056,0.136 -33.283,-13.445 -34.484,-14.348c-22.757,-13.267 -41.32,-52.372 -37.215,-94.776c3.369,-34.809 40.805,15.978 67.182,-55.458c12.973,-8.108 35.818,-4.287 44.467,2.755c25.57,20.818 28.749,36.361 31.746,58.329c4.42,32.391 -13.765,73.147 -37.212,89.152l0,-0.002l0,0Z" style="fill:#cfbdd9;fill-rule:nonzero;"/><path d="M152.757,18.406c17.992,10.159 15.311,49.025 -5.984,86.738c-21.294,37.713 -53.189,60.084 -71.181,49.925c-17.991,-10.159 -15.31,-49.025 5.984,-86.738c21.295,-37.713 53.19,-60.083 71.181,-49.925Z" style="fill:#5c4e65;"/><path d="M70.424,263.863c-22.411,10.151 -38.077,7.332 -53.676,28.598c-2.717,3.703 -16.748,75.213 -16.748,75.213l321.96,0.592c0,0 -15.142,-71.75 -17.039,-75.805c-10.358,-22.153 -57.571,-29.488 -80.005,-39.703c-34.646,99.513 -92.6,79.466 -126.973,1.316l-10.187,3.032l-8.264,3.942l-9.068,2.815Z" style="fill:#876c97;fill-rule:nonzero;"/><path d="M182.26,168.288c2.164,1.962 -8.214,24.873 -21.825,24.873c-13.611,0 -21.358,-19.356 -21.358,-19.356c0,0 15.958,2.427 23.172,1.974c6.622,-0.416 20.011,-7.491 20.011,-7.491Z" style="fill:#fff;"/></svg>