<?xml version="1.0" encoding="UTF-8" standalone="no"?><!DOCTYPE svg PUBLIC "-//W3C//DTD SVG 1.1//EN" "http://www.w3.org/Graphics/SVG/1.1/DTD/svg11.dtd"><svg width="100%" height="100%" viewBox="0 0 212 212" version="1.1" xmlns="http://www.w3.org/2000/svg" xmlns:xlink="http://www.w3.org/1999/xlink" xml:space="preserve" style="fill-rule:evenodd;clip-rule:evenodd;stroke-linecap:round;stroke-linejoin:round;stroke-miterlimit:1.5;"><g id="two-lines"><path d="M100.07,146.855l0.003,-1.246l-11.543,-0.028l-0.003,1.246l11.543,0.028Z" style="fill:#2f3770;stroke:#333332;stroke-width:2px;"/><path d="M99.984,135.543l-1.273,0.01l0.089,11.302l1.273,-0.009l-0.089,-11.303Z" style="fill:#2f3770;stroke:#333332;stroke-width:2px;"/></g><path id="half-circle" d="M207.675,95.346c0.279,-0.929 0.254,-1.852 -0.074,-2.676c-1.032,-2.592 -4.745,-3.599 -8.288,-2.247c-3.543,1.352 -5.582,4.554 -4.55,7.145c0.328,0.825 0.946,1.521 1.794,2.02l11.118,-4.242Z" style="fill:none;stroke:#333332;stroke-width:2px;"/><path id="star-filled" d="M69.782,179.661l0.874,2.592l2.829,0l-2.288,1.602l0.874,2.592l-2.289,-1.602l-2.288,1.602l0.874,-2.592l-2.289,-1.602l2.829,0l0.874,-2.592Z" style="fill:#333332;stroke:#333332;stroke-width:2px;"/><path id="line" d="M3.679,74.913l0.003,0.979l6.772,-0.015l-0.002,-0.978l-6.773,0.014Z" style="fill:#2f3770;stroke:#333332;stroke-width:2px;"/><path id="square-filled" d="M90.886,102.516l-1.535,2.726l2.87,1.549l1.534,-2.726l-2.869,-1.549Z" style="fill:#333332;stroke:#333332;stroke-width:2px;"/><rect id="rectangle-filled" x="32.487" y="5.713" width="1.999" height="6.632" style="fill:#333332;stroke:#333332;stroke-width:2px;"/><ellipse id="circle-filled" cx="77.934" cy="55.971" rx="2.246" ry="2.272" style="fill:#333332;stroke:#333332;stroke-width:2px;"/><ellipse id="circle" cx="192.741" cy="197.171" rx="2.645" ry="2.676" style="fill:none;stroke:#333332;stroke-width:2px;"/><ellipse id="circle-filled1" cx="7.255" cy="201.965" rx="1.427" ry="1.444" style="fill:#333332;stroke:#333332;stroke-width:2px;"/><ellipse id="circle1" cx="69.853" cy="17.533" rx="5.128" ry="5.188" style="fill:none;stroke:#333332;stroke-width:2px;"/><path id="line1" d="M58.06,127.202l-0.857,-0.921l-8.534,7.611l0.857,0.921l8.534,-7.611Z" style="fill:#2f3770;stroke:#333332;stroke-width:2px;"/><path id="line2" d="M174.563,174.308l-0.881,0.899l8.326,7.829l0.881,-0.899l-8.326,-7.829Z" style="fill:#2f3770;stroke:#333332;stroke-width:2px;"/><path id="line3" d="M205.314,135.642l-1.269,-0.099l-0.918,11.267l1.269,0.1l0.918,-11.268Z" style="fill:#2f3770;stroke:#333332;stroke-width:2px;"/><path id="line4" d="M114.595,27.49l-0.692,1.046l9.686,6.147l0.692,-1.046l-9.686,-6.147Z" style="fill:#2f3770;stroke:#333332;stroke-width:2px;"/><path id="line5" d="M174.945,58.968l-1.263,0.158l1.462,11.213l1.262,-0.158l-1.461,-11.213Z" style="fill:#2f3770;stroke:#333332;stroke-width:2px;"/><path id="diamond" d="M124.234,66.259l5.6,7.366l-4.517,8.049l-5.6,-7.367l4.517,-8.048Z" style="fill:none;stroke:#333332;stroke-width:2px;"/><path id="triangle" d="M36.472,96.457l1.267,-12.573l8.963,4.874l-10.23,7.699Z" style="fill:none;stroke:#333332;stroke-width:2px;"/><path id="triangle-filled" d="M156.631,102.516l-0.333,-5.775l5.515,2.999l-5.182,2.776Z" style="fill:#333332;stroke:#333332;stroke-width:2px;"/><path id="triangle-filled1" d="M129.019,161.473l-0.398,-3.06l3.261,1.774l-2.863,1.286Z" style="fill:#333332;stroke:#333332;stroke-width:2px;"/><path id="triangle1" d="M124.649,200.774l-5.386,-7.256l10.246,-0.348l-4.86,7.604Z" style="fill:none;stroke:#333332;stroke-width:2px;"/><path id="hexagon" d="M158.667,131.986l5.765,3.933l-1.683,7.009l-6.804,0.398l-2.523,-6.763l5.245,-4.577Z" style="fill:none;stroke:#333332;stroke-width:2px;"/><path id="rectangle" d="M25.953,149.928l-4.702,0.225l0.592,11.883l4.701,-0.224l-0.591,-11.884Z" style="fill:none;stroke:#333332;stroke-width:2px;"/><path id="square" d="M11.674,36.383l-5.38,4.92l4.691,4.919l5.38,-4.92l-4.691,-4.919Z" style="fill:none;stroke:#333332;stroke-width:2px;"/><path id="triangle2" d="M182.159,16.433l4.128,11.97l-10.217,-0.831l6.089,-11.139Z" style="fill:none;stroke:#333332;stroke-width:2px;"/></svg>