<?xml version="1.0" encoding="UTF-8" standalone="no"?><!DOCTYPE svg PUBLIC "-//W3C//DTD SVG 1.1//EN" "http://www.w3.org/Graphics/SVG/1.1/DTD/svg11.dtd"><svg width="100%" height="100%" viewBox="0 0 296 296" version="1.1" xmlns="http://www.w3.org/2000/svg" xmlns:xlink="http://www.w3.org/1999/xlink" xml:space="preserve" style="fill-rule:evenodd;clip-rule:evenodd;stroke-linejoin:round;stroke-miterlimit:1.41421;"><g><path d="M147.998,0c-81.606,0 -147.998,66.392 -147.998,147.998c0,81.606 66.392,147.998 147.998,147.998c81.606,0 147.998,-66.392 147.998,-147.998c0,-81.606 -66.391,-147.998 -147.998,-147.998Zm0,279.996c-36.256,0 -69.143,-14.696 -93.022,-38.44c-9.536,-9.482 -17.631,-20.41 -23.934,-32.42c-9.6,-18.289 -15.042,-39.089 -15.042,-61.138c0,-72.784 59.214,-131.998 131.998,-131.998c34.523,0 65.987,13.328 89.533,35.102c12.208,11.288 22.289,24.844 29.558,39.996c8.27,17.239 12.907,36.538 12.907,56.9c0,72.784 -59.214,131.998 -131.998,131.998Z" style="fill:#333332;fill-rule:nonzero;"/><ellipse cx="148.545" cy="147.998" rx="134.919" ry="133.92" style="fill:#fff;"/><circle cx="99.666" cy="114.998" r="16" style="fill:#333332;"/><circle cx="198.666" cy="114.998" r="16" style="fill:#333332;"/><path d="M147.715,229.995c30.954,0 60.619,-15.83 77.604,-42.113l-13.439,-8.684c-15.597,24.135 -44.126,37.604 -72.693,34.308c-22.262,-2.567 -42.849,-15.393 -55.072,-34.308l-13.438,8.684c14.79,22.889 39.716,38.409 66.676,41.519c3.461,0.399 6.917,0.594 10.362,0.594Z" style="fill:#333332;fill-rule:nonzero;"/></g></svg>