<?xml version="1.0" encoding="UTF-8" standalone="no"?><!DOCTYPE svg PUBLIC "-//W3C//DTD SVG 1.1//EN" "http://www.w3.org/Graphics/SVG/1.1/DTD/svg11.dtd"><svg width="100%" height="100%" viewBox="0 0 472 472" version="1.1" xmlns="http://www.w3.org/2000/svg" xmlns:xlink="http://www.w3.org/1999/xlink" xml:space="preserve" style="fill-rule:evenodd;clip-rule:evenodd;stroke-linejoin:round;stroke-miterlimit:1.41421;"><path d="M237.002,110.359c45.598,-76.604 136.795,-76.604 182.393,-38.302c45.6,38.302 51.621,87.19 6.021,163.794c-31.92,57.453 -120.016,142.624 -188.414,180.926c-68.397,-38.302 -155.782,-132.251 -187.7,-189.704c-45.599,-76.605 -40.291,-116.714 5.307,-155.016c45.599,-38.302 136.795,-38.302 182.393,38.302Z" style="fill:#fff;"/><path d="M433.601,67.001c-24.7,-24.7 -57.4,-38.2 -92.3,-38.2c-34.9,0 -67.7,13.6 -92.4,38.3l-12.9,12.9l-13.1,-13.1c-24.7,-24.7 -57.6,-38.4 -92.5,-38.4c-34.8,0 -67.6,13.6 -92.2,38.2c-24.7,24.7 -38.3,57.5 -38.2,92.4c0,34.9 13.7,67.6 38.4,92.3l187.8,187.8c2.6,2.6 6.1,4 9.5,4c3.4,0 6.9,-1.3 9.5,-3.9l188.2,-187.5c24.7,-24.7 38.3,-57.5 38.3,-92.4c0.1,-34.9 -13.4,-67.7 -38.1,-92.4Zm-19.2,165.7l-178.7,178l-178.3,-178.3c-19.6,-19.6 -30.4,-45.6 -30.4,-73.3c0,-27.7 10.7,-53.7 30.3,-73.2c19.5,-19.5 45.5,-30.3 73.1,-30.3c27.7,0 53.8,10.8 73.4,30.4l22.6,22.6c5.3,5.3 13.8,5.3 19.1,0l22.4,-22.4c19.6,-19.6 45.7,-30.4 73.3,-30.4c27.6,0 53.6,10.8 73.2,30.3c19.6,19.6 30.3,45.6 30.3,73.3c0.1,27.7 -10.7,53.7 -30.3,73.3Z" style="fill:#333332;fill-rule:nonzero;"/></svg>