<?xml version="1.0" encoding="UTF-8" standalone="no"?><!DOCTYPE svg PUBLIC "-//W3C//DTD SVG 1.1//EN" "http://www.w3.org/Graphics/SVG/1.1/DTD/svg11.dtd"><svg width="100%" height="100%" viewBox="0 0 511 511" version="1.1" xmlns="http://www.w3.org/2000/svg" xmlns:xlink="http://www.w3.org/1999/xlink" xml:space="preserve" style="fill-rule:evenodd;clip-rule:evenodd;stroke-linejoin:round;stroke-miterlimit:1.41421;"><path d="M500.18,180.745c0,-37.266 -61.278,-64.044 -98.544,-64.044l-146.174,-46.754c-37.266,0 -243.92,73.059 -243.92,110.325l58.277,39.307c0,37.266 -4.107,142.703 39.492,165.482l120.338,35.982l146.28,-12.029c37.266,0 21.254,-138.572 21.254,-175.838l102.997,-52.431Z" style="fill:#fff;"/><path d="M486.4,138.662l-202.473,-74.472c-22.109,-8.145 -46.545,-8.145 -68.655,0l-189.672,73.309c-16.291,5.818 -25.6,20.945 -25.6,37.236c0,16.291 10.473,30.255 25.6,36.073l202.473,74.473c10.473,3.491 22.109,5.818 33.745,5.818c11.636,0 23.273,-2.327 32.582,-6.982l46.545,-17.455c5.818,-2.327 9.309,-9.309 6.982,-15.127c-2.327,-5.818 -9.309,-9.309 -15.127,-6.982l-46.545,17.455c-15.127,5.818 -32.582,5.818 -50.036,0l-202.474,-73.309c-9.309,-3.491 -10.473,-11.636 -10.473,-13.964c0,-2.328 1.164,-11.636 10.473,-15.127l189.673,-72.146c16.291,-5.818 34.909,-6.982 52.364,0l202.473,74.473c6.982,1.164 10.473,5.818 10.473,12.8c0,6.982 -4.655,12.8 -11.636,15.127l-81.455,31.418l-123.345,-50.036c-3.491,-4.655 -11.636,-8.145 -22.109,-8.145c-12.8,0 -23.273,5.818 -23.273,11.636c0,5.818 9.309,10.473 20.945,11.636l136.145,54.691l0,144.291c-13.964,4.655 -23.273,17.455 -23.273,32.582c0,19.782 15.127,34.909 34.909,34.909c19.782,0 34.909,-15.127 34.909,-34.909c0,-12.8 -6.982,-24.436 -18.618,-30.255c9.309,-5.818 18.618,-12.8 25.6,-18.618c2.327,-2.327 3.491,-5.818 3.491,-8.146l0,-93.091c0,-6.982 -4.655,-11.636 -11.636,-11.636c-6.981,0 -11.636,4.655 -11.636,11.636l0,87.273c-3.491,3.491 -6.982,5.818 -11.636,8.146l0,-121.018l77.964,-29.091c16.291,-5.818 26.764,-20.945 26.764,-37.236c1.162,-17.455 -9.311,-31.419 -24.438,-37.237Zm-79.127,280.437c0,2.184 -0.455,4.139 -1.295,5.796c-1.844,3.642 -5.543,5.84 -10.341,5.84c-6.982,0 -11.636,-4.655 -11.636,-11.636c0,-6.981 4.655,-11.636 11.636,-11.636c6.981,-0.001 11.636,4.654 11.636,11.636Z" style="fill:#333332;fill-rule:nonzero;"/><path d="M374.597,398.12c29.373,-19.032 16.009,-15.582 -51.106,1.196c-23.273,5.818 -46.545,8.146 -67.491,8.146c-58.182,0 -126.836,-22.109 -162.909,-52.364l0,-87.273c0.979,-47.752 -4.448,-49.28 -11.429,-49.28c-6.981,0 -10.516,-6.79 -11.843,49.28l0,93.091c0,3.491 1.164,6.982 3.491,8.145c45.381,40.729 125.672,61.674 182.69,61.674c22.109,0 47.709,-3.491 72.145,-9.309c45.626,-10.863 48.779,-17.487 46.452,-23.306Z" style="fill:#333332;fill-rule:nonzero;"/></svg>