<?xml version="1.0" encoding="UTF-8" standalone="no"?><!DOCTYPE svg PUBLIC "-//W3C//DTD SVG 1.1//EN" "http://www.w3.org/Graphics/SVG/1.1/DTD/svg11.dtd"><svg width="100%" height="100%" viewBox="0 0 470 470" version="1.1" xmlns="http://www.w3.org/2000/svg" xmlns:xlink="http://www.w3.org/1999/xlink" xml:space="preserve" style="fill-rule:evenodd;clip-rule:evenodd;stroke-linejoin:round;stroke-miterlimit:1.41421;"><ellipse cx="235" cy="235" rx="219.966" ry="220.649" style="fill:#fff;"/><g><path d="M252.5,223l-34.9,0c-14.5,0 -26.3,-11.8 -26.3,-26.3c0,-14.5 11.8,-26.3 26.3,-26.3l61.6,0c6.6,0 12,-5.4 12,-12c0,-6.6 -5.4,-12 -12,-12l-32.1,0l0,-24.5c0,-6.6 -5.4,-12 -12,-12c-6.6,0 -12,5.4 -12,12l0,24.5l-5.5,0c-27.7,0 -50.3,22.6 -50.3,50.3c0,27.7 22.6,50.3 50.3,50.3l34.9,0c14.5,0 26.3,11.8 26.3,26.3c0,14.5 -11.8,26.3 -26.3,26.3l-62.7,0c-6.6,0 -12,5.4 -12,12c0,6.6 5.4,12 12,12l33.2,0l0,25c0,6.6 5.4,12 12,12c6.6,0 12,-5.4 12,-12l0,-25l6.1,0c27.4,-0.4 49.6,-22.8 49.6,-50.3c0,-27.8 -22.5,-50.3 -50.2,-50.3Z" style="fill:#333332;fill-rule:nonzero;"/><path d="M401.2,68.8c-44.4,-44.4 -103.4,-68.8 -166.2,-68.8c-62.8,0 -121.8,24.4 -166.2,68.8c-44.4,44.4 -68.8,103.4 -68.8,166.2c0,62.8 24.4,121.8 68.8,166.2c44.4,44.4 103.4,68.8 166.2,68.8c62.8,0 121.8,-24.4 166.2,-68.8c44.4,-44.4 68.8,-103.4 68.8,-166.2c0,-62.8 -24.4,-121.8 -68.8,-166.2Zm-166.2,377.2c-116.3,0 -211,-94.7 -211,-211c0,-116.3 94.7,-211 211,-211c116.3,0 211,94.7 211,211c0,116.3 -94.7,211 -211,211Z" style="fill:#333332;fill-rule:nonzero;"/></g></svg>